<?xml version="1.0" encoding="UTF-8"?>
<svg xmlns="http://www.w3.org/2000/svg" width="86" height="87" viewBox="0 0 86 87" fill="none">
  <path fill-rule="evenodd" clip-rule="evenodd" d="M26.7775 55.1406C22.7324 55.1406 19.7432 51.8089 19.7432 47.7785C19.7432 41.7312 23.5234 32.6162 30.6459 32.6162C35.2189 32.6162 37.7685 35.5959 37.7685 40.0662C37.7685 45.8513 34.1631 55.1424 26.7775 55.1424V55.1406ZM17.2819 69.4265C35.482 73.1084 38.5595 74.6853 38.5595 78.2792C38.5595 84.0643 28.0081 85.5533 23.7882 85.5533C19.3036 85.5533 10.336 84.5008 10.336 78.3655C10.336 74.4213 13.7648 70.9154 17.2819 69.4247V69.4265ZM0 43.5C0 54.0969 3.80139 63.8103 10.1188 71.3554C11.9391 70.1709 13.9114 69.1906 15.5234 68.286C14.2927 67.4095 13.5017 66.445 13.5017 64.8681C13.5017 60.9239 19.4801 58.2945 22.5594 57.1558V56.9798C17.4603 56.2793 12.3594 51.9832 12.3594 46.4621C12.3594 39.1 18.4261 30.6855 31.9666 30.6855C35.3072 30.6855 38.4729 31.298 41.1991 33.4029H52.1707L53.5231 27.0546H59.0513L57.6617 33.5754H59.9835L59.1325 37.5723H56.8107L53.6714 52.2964C53.5832 53.3049 55.1298 53.18 55.822 53.0955L54.9074 57.3863C51.5774 57.7647 46.9568 58.0587 47.8978 53.6428L51.2772 37.7835H44.3613C44.8009 39.0983 45.1523 40.501 45.1523 41.9037C45.1523 51.4569 35.7451 56.8918 27.0405 57.066C25.1072 57.6803 19.3918 59.6075 19.3918 61.8867C19.3918 63.9898 22.2928 64.3401 31.3504 66.445C36.2747 67.5837 43.7469 69.2505 43.7469 75.648C43.7469 80.9738 39.8413 84.2597 35.03 86.1552C37.8126 86.7096 40.6906 87 43.6356 87C62.8968 87 79.2412 74.5621 85.0307 57.3036H80.0022L83.4187 41.2754C83.876 39.1299 84.1126 37.0267 81.6813 37.1517C79.2906 37.2784 78.5191 38.9187 77.9276 41.696L74.6011 57.3036H69.1153L72.5936 40.9797C73.0421 38.8765 73.2504 37.1095 70.7097 37.1517C68.1266 37.1939 67.5969 39.0877 67.0407 41.696L63.7143 57.3036H58.2285L63.2853 33.5754H68.771L68.2502 36.0165H68.3349C70.1147 33.4082 72.4312 33.0298 74.2215 32.9453C76.2573 32.9031 78.7698 33.7866 78.6744 36.0165C80.2105 33.9556 82.1562 32.9453 84.8576 32.9453C85.2673 32.9453 85.6469 32.97 86 33.0192C81.2946 14.0588 64.1133 0 43.6374 0C19.5366 0 0 19.4761 0 43.5ZM76.9035 65.7287C76.6245 66.0033 76.3668 66.1969 76.1284 66.3078C75.89 66.4204 75.6517 66.475 75.4133 66.475C75.039 66.475 74.7353 66.3412 74.5023 66.0737C74.2692 65.8079 74.1633 65.4436 74.1862 64.9842C74.2039 64.6551 74.2904 64.37 74.4475 64.1254C74.6047 63.8807 74.8183 63.6942 75.0867 63.5639C75.3551 63.4337 75.7347 63.358 76.2237 63.3351C76.6369 63.3122 76.9212 63.2858 77.0765 63.2594C77.2319 63.233 77.3643 63.1926 77.4756 63.138C77.5568 62.8951 77.6009 62.6998 77.6098 62.5449C77.6204 62.3319 77.548 62.1612 77.3926 62.0327C77.2372 61.9042 77.0059 61.8391 76.6987 61.8391C76.0807 61.8391 75.664 62.1454 75.4504 62.7614L74.7177 62.691C75.0849 61.6403 75.7717 61.1158 76.7799 61.1158C77.2761 61.1158 77.6645 61.246 77.9435 61.5047C78.2224 61.7634 78.3513 62.089 78.3319 62.4833C78.3178 62.7526 78.263 63.0694 78.1677 63.4319L77.8234 64.7026C77.7139 65.1074 77.6521 65.4348 77.6398 65.6847C77.631 65.8572 77.6468 66.086 77.6874 66.3676H76.9459C76.9176 66.2057 76.9035 65.9927 76.9017 65.7287H76.9035ZM77.3202 63.7628C77.1966 64.3049 77.0606 64.7097 76.9123 64.9772C76.764 65.2447 76.5769 65.4489 76.3544 65.5914C76.1319 65.7322 75.9042 65.8044 75.6729 65.8044C75.4275 65.8044 75.235 65.7287 75.0955 65.5774C74.956 65.426 74.8925 65.2201 74.9066 64.9596C74.9154 64.7695 74.9719 64.6023 75.0708 64.458C75.1714 64.3137 75.3056 64.2046 75.4734 64.1359C75.6429 64.0638 75.9483 64.0074 76.3932 63.9617C76.8276 63.9159 77.1383 63.849 77.3237 63.7646L77.3202 63.7628ZM73.5435 60.2639L73.7642 59.2731H74.4899L74.2692 60.2639H73.5435ZM72.1858 66.3676L73.3299 61.2267H74.0556L72.9114 66.3676H72.1858ZM70.0652 66.3676L71.0593 61.899H70.4078L70.5596 61.2249H71.2094L71.37 60.4998C71.483 59.9929 71.6066 59.6585 71.7408 59.4983C71.9333 59.2695 72.2193 59.1551 72.5954 59.1551C72.7737 59.1551 73.0368 59.2027 73.3811 59.2959L73.2134 60.0633C72.9715 59.9876 72.7702 59.9471 72.6077 59.9471C72.4647 59.9471 72.3553 59.9911 72.2776 60.0774C72.1999 60.1636 72.1257 60.366 72.0551 60.6793L71.9333 61.2249H72.7366L72.5866 61.899H71.785L70.7909 66.3676H70.0652ZM68.3085 65.7287C68.0295 66.0033 67.7717 66.1969 67.5333 66.3078C67.295 66.4204 67.0566 66.475 66.8183 66.475C66.444 66.475 66.1403 66.3412 65.9072 66.0737C65.6741 65.8079 65.5682 65.4436 65.5912 64.9842C65.607 64.6551 65.6936 64.37 65.8525 64.1254C66.0096 63.8807 66.2233 63.6942 66.4916 63.5639C66.76 63.4337 67.1396 63.358 67.6287 63.3351C68.0418 63.3122 68.3279 63.2858 68.4815 63.2594C68.6369 63.233 68.7693 63.1926 68.8805 63.138C68.9617 62.8951 69.0059 62.6998 69.0129 62.5449C69.0235 62.3319 68.9511 62.1612 68.7958 62.0327C68.6404 61.9042 68.4091 61.8391 68.1019 61.8391C67.4839 61.8391 67.069 62.1454 66.8536 62.7614L66.1208 62.691C66.4881 61.6403 67.1749 61.1158 68.1813 61.1158C68.6775 61.1158 69.0641 61.246 69.3449 61.5047C69.6238 61.7634 69.7527 62.089 69.7333 62.4833C69.7192 62.7526 69.6645 63.0694 69.5691 63.4319L69.2248 64.7026C69.1153 65.1074 69.0536 65.4348 69.0412 65.6847C69.0324 65.8572 69.0482 66.086 69.0906 66.3676H68.3491C68.3208 66.2057 68.3067 65.9927 68.3067 65.7287H68.3085ZM68.7251 63.7628C68.6015 64.3049 68.4656 64.7097 68.3173 64.9772C68.1672 65.2447 67.9818 65.4489 67.7593 65.5914C67.5369 65.7322 67.3091 65.8044 67.0778 65.8044C66.8324 65.8044 66.6399 65.7287 66.5005 65.5774C66.361 65.426 66.2974 65.2201 66.3098 64.9596C66.3186 64.7695 66.3733 64.6023 66.474 64.458C66.5746 64.3137 66.7088 64.2046 66.8765 64.1359C67.0443 64.0638 67.3515 64.0074 67.7964 63.9617C68.2308 63.9159 68.5415 63.849 68.7269 63.7646L68.7251 63.7628ZM62.7291 66.3676L63.8732 61.2267H64.5177L64.2828 62.2791C64.7437 61.5047 65.1851 61.1175 65.6088 61.1175C65.7536 61.1175 65.9266 61.1791 66.1297 61.3058L65.7942 62.1154C65.6741 62.0063 65.5453 61.9518 65.4075 61.9518C65.1445 61.9518 64.8726 62.126 64.5936 62.4727C64.3146 62.8194 64.078 63.4319 63.882 64.3084L63.4141 66.3711H62.7291V66.3676ZM58.1491 66.834L58.8712 66.9026L58.8659 67.0205C58.8535 67.2476 58.9083 67.4183 59.0283 67.5327C59.1484 67.6489 59.3426 67.7052 59.611 67.7052C60.0277 67.7052 60.3384 67.5767 60.5468 67.3215C60.6916 67.1349 60.8346 66.7231 60.9776 66.0913L61.0659 65.6671C60.6686 66.1318 60.2607 66.3658 59.8423 66.3658C59.4238 66.3658 59.0813 66.1793 58.8094 65.8026C58.5375 65.4278 58.4192 64.8839 58.4545 64.1711C58.4828 63.6097 58.6187 63.0817 58.8641 62.5871C59.1096 62.0926 59.3938 61.723 59.7187 61.4801C60.0436 61.2372 60.3631 61.114 60.681 61.114C61.223 61.114 61.6256 61.4326 61.8886 62.0679L62.0634 61.2231H62.7079L61.6856 66.1845C61.5196 66.9343 61.2972 67.4746 61.02 67.8055C60.6704 68.2191 60.2148 68.4268 59.6516 68.4268C59.1184 68.4268 58.7229 68.3089 58.4704 68.0695C58.2161 67.8319 58.0996 67.5063 58.1208 67.0927C58.1243 67.0153 58.1349 66.929 58.1526 66.8305L58.1491 66.834ZM59.1925 64.0902C59.2084 63.7874 59.2932 63.4337 59.4468 63.0254C59.6022 62.6188 59.7911 62.3161 60.0136 62.1172C60.2378 61.9183 60.4585 61.8198 60.6757 61.8198C60.944 61.8198 61.1683 61.9412 61.3466 62.1858C61.5249 62.4305 61.6044 62.7684 61.5832 63.2014C61.562 63.6396 61.4614 64.0655 61.2813 64.4826C61.1029 64.8998 60.8999 65.1972 60.6721 65.3767C60.4444 65.5562 60.2254 65.6442 60.0136 65.6442C59.8546 65.6442 59.7099 65.5879 59.5739 65.477C59.438 65.3662 59.3373 65.2025 59.2667 64.986C59.1961 64.7713 59.1713 64.4703 59.1908 64.0884L59.1925 64.0902ZM53.9098 64.4158C53.9557 63.4918 54.2047 62.7103 54.6531 62.0732C55.1034 61.4361 55.6789 61.1175 56.3799 61.1175C56.8725 61.1175 57.268 61.3059 57.5699 61.6807C57.8719 62.0556 58.0043 62.5889 57.9707 63.2806C57.9389 63.9142 57.8012 64.4809 57.5576 64.9807C57.3139 65.4788 57.012 65.8537 56.6518 66.1036C56.2916 66.3535 55.9208 66.4785 55.5377 66.4785C55.0363 66.4785 54.6302 66.2937 54.323 65.9258C54.014 65.558 53.8762 65.0529 53.908 64.4175L53.9098 64.4158ZM54.6496 64.3278C54.6725 63.8508 54.775 63.4002 54.9568 62.9761C55.1369 62.5519 55.3488 62.2492 55.5924 62.0644C55.8343 61.8814 56.0797 61.7881 56.3269 61.7881C56.6094 61.7881 56.8425 61.9148 57.0226 62.1683C57.2027 62.4217 57.2804 62.793 57.2556 63.2823C57.2327 63.7329 57.1268 64.1729 56.9343 64.6023C56.7419 65.03 56.5264 65.338 56.2899 65.5228C56.0515 65.7094 55.8184 65.8009 55.5907 65.8009C55.3011 65.8009 55.0663 65.6777 54.8844 65.4278C54.7043 65.1796 54.6249 64.8118 54.6496 64.326V64.3278ZM49.1603 66.3676L50.3044 61.2267H50.97L50.7776 62.133C51.1042 61.7511 51.3973 61.4854 51.6569 61.3375C51.9164 61.1897 52.1636 61.1158 52.4002 61.1158C52.7304 61.1158 52.9934 61.2249 53.1859 61.4467C53.3801 61.6667 53.4666 61.9799 53.4454 62.3847C53.4366 62.566 53.3836 62.8582 53.2865 63.263L52.5591 66.3676H51.8334L52.5926 63.1116C52.6668 62.793 52.7074 62.5572 52.7145 62.4058C52.7233 62.2298 52.6791 62.0926 52.5803 61.9905C52.4832 61.8902 52.3437 61.8391 52.1671 61.8391C51.7981 61.8391 51.4609 61.9975 51.1501 62.3178C50.8394 62.6364 50.5957 63.1908 50.4192 63.9775L49.8859 66.3676H49.1603ZM47.8378 64.6146L48.5388 64.7044C48.3975 65.2042 48.1044 65.639 47.6595 66.0086C47.2905 66.3218 46.8879 66.4785 46.4536 66.4785C46.1446 66.4785 45.8691 66.3958 45.6237 66.2303C45.3783 66.0649 45.1894 65.8167 45.057 65.4876C44.9245 65.1567 44.8698 64.7642 44.8927 64.3066C44.9228 63.7047 45.0658 63.1433 45.32 62.6223C45.5743 62.1014 45.8727 61.7195 46.2152 61.4801C46.5577 61.2407 46.9215 61.1211 47.3064 61.1211C47.7954 61.1211 48.1856 61.3059 48.477 61.6754C48.7665 62.045 48.8954 62.5678 48.8619 63.2418C48.8477 63.4918 48.8177 63.7505 48.7701 64.0127H45.6573C45.6431 64.1166 45.6325 64.2081 45.629 64.2873C45.6061 64.7695 45.6785 65.1356 45.8515 65.3838C46.0245 65.6337 46.2399 65.7569 46.4995 65.7569C46.759 65.7569 46.9921 65.6601 47.241 65.463C47.49 65.2676 47.6877 64.986 47.8396 64.6182L47.8378 64.6146ZM45.8056 63.3351C45.9574 62.8177 46.1675 62.4322 46.4341 62.1753C46.7007 61.9183 46.9868 61.7898 47.2905 61.7898C47.5712 61.7898 47.7972 61.9042 47.9667 62.1313C48.1362 62.3583 48.2104 62.7015 48.1874 63.1574L48.1786 63.3351H45.8038H45.8056ZM43.5703 64.495L44.3013 64.5847C44.0876 65.2254 43.8034 65.7006 43.452 66.0103C43.0989 66.3201 42.7157 66.4767 42.2991 66.4767C41.8523 66.4767 41.4904 66.3007 41.215 65.9505C40.9395 65.5985 40.8177 65.0916 40.8512 64.4246C40.8848 63.7716 41.0225 63.1767 41.2644 62.6434C41.5063 62.1084 41.7976 61.7212 42.1401 61.4801C42.4809 61.239 42.8517 61.1175 43.2543 61.1175C43.6886 61.1175 44.0347 61.2689 44.296 61.5734C44.5555 61.8761 44.672 62.2932 44.642 62.823L43.934 62.8828C43.9499 62.5466 43.8863 62.2897 43.738 62.1102C43.5897 61.9306 43.4008 61.8409 43.1713 61.8409C42.9153 61.8409 42.6804 61.9254 42.4668 62.0943C42.2531 62.2633 42.0589 62.5766 41.8859 63.0306C41.7129 63.4865 41.6122 63.9916 41.584 64.5442C41.5628 64.9561 41.6281 65.2694 41.78 65.4841C41.9318 65.697 42.119 65.8044 42.345 65.8044C42.571 65.8044 42.804 65.697 43.0265 65.4806C43.249 65.2658 43.4308 64.9367 43.5721 64.4967L43.5703 64.495Z" fill="#F47B20"></path>
</svg>
